<?xml version="1.0" standalone="no"?>
<svg xmlns:xlink="http://www.w3.org/1999/xlink" id="wave" style="transform:rotate(0deg); transition: 0.3s" viewBox="0 0 1440 100" version="1.1" xmlns="http://www.w3.org/2000/svg"><defs><linearGradient id="sw-gradient-0" x1="0" x2="0" y1="1" y2="0"><stop stop-color="rgba(27, 27, 27, 1)" offset="0%"/><stop stop-color="rgba(27, 27, 27, 1)" offset="100%"/></linearGradient></defs><path style="transform:translate(0, 0px); opacity:1" fill="url(#sw-gradient-0)" d="M0,50L10,55C20,60,40,70,60,68.3C80,67,100,53,120,50C140,47,160,53,180,58.3C200,63,220,67,240,65C260,63,280,57,300,55C320,53,340,57,360,63.3C380,70,400,80,420,76.7C440,73,460,57,480,51.7C500,47,520,53,540,48.3C560,43,580,27,600,25C620,23,640,37,660,38.3C680,40,700,30,720,25C740,20,760,20,780,18.3C800,17,820,13,840,21.7C860,30,880,50,900,60C920,70,940,70,960,71.7C980,73,1000,77,1020,71.7C1040,67,1060,53,1080,45C1100,37,1120,33,1140,33.3C1160,33,1180,37,1200,38.3C1220,40,1240,40,1260,45C1280,50,1300,60,1320,66.7C1340,73,1360,77,1380,71.7C1400,67,1420,53,1430,46.7L1440,40L1440,100L1430,100C1420,100,1400,100,1380,100C1360,100,1340,100,1320,100C1300,100,1280,100,1260,100C1240,100,1220,100,1200,100C1180,100,1160,100,1140,100C1120,100,1100,100,1080,100C1060,100,1040,100,1020,100C1000,100,980,100,960,100C940,100,920,100,900,100C880,100,860,100,840,100C820,100,800,100,780,100C760,100,740,100,720,100C700,100,680,100,660,100C640,100,620,100,600,100C580,100,560,100,540,100C520,100,500,100,480,100C460,100,440,100,420,100C400,100,380,100,360,100C340,100,320,100,300,100C280,100,260,100,240,100C220,100,200,100,180,100C160,100,140,100,120,100C100,100,80,100,60,100C40,100,20,100,10,100L0,100Z"/></svg>